<?xml version="1.0" encoding="UTF-8"?>
<svg id="Layer_1" data-name="Layer 1" xmlns="http://www.w3.org/2000/svg" xmlns:xlink="http://www.w3.org/1999/xlink" viewBox="0 0 810.57 1148.95">
  <defs>
    <style>
      .cls-1 {
        fill: url(#linear-gradient-2);
      }

      .cls-2 {
        fill: #fff;
      }

      .cls-3 {
        fill: url(#linear-gradient-6);
      }

      .cls-4 {
        fill: url(#linear-gradient-5);
      }

      .cls-5 {
        fill: url(#linear-gradient-3);
      }

      .cls-6 {
        fill: url(#linear-gradient);
      }

      .cls-7 {
        fill: url(#linear-gradient-4);
      }
    </style>
    <linearGradient id="linear-gradient" x1="237.89" y1="1123.26" x2="237.89" y2="5.5" gradientUnits="userSpaceOnUse">
      <stop offset=".71" stop-color="#e94e38"/>
      <stop offset=".78" stop-color="#ee5e38"/>
      <stop offset=".89" stop-color="#f77c39"/>
    </linearGradient>
    <linearGradient id="linear-gradient-2" x1="17.2" y1="934.61" x2="542.61" y2="330.2" gradientUnits="userSpaceOnUse">
      <stop offset=".13" stop-color="#f66f37"/>
      <stop offset=".29" stop-color="#e56332"/>
      <stop offset=".6" stop-color="#b94426"/>
      <stop offset=".89" stop-color="#8d251a"/>
    </linearGradient>
    <linearGradient id="linear-gradient-3" x1="571.3" y1="1148.95" x2="571.3" y2="327.37" gradientUnits="userSpaceOnUse">
      <stop offset="0" stop-color="#121936"/>
      <stop offset=".48" stop-color="#162343"/>
      <stop offset=".94" stop-color="#2d4d7c"/>
    </linearGradient>
    <linearGradient id="linear-gradient-4" x1="643.18" y1="445.55" x2="643.18" y2="24.46" gradientUnits="userSpaceOnUse">
      <stop offset=".13" stop-color="#3d73b3"/>
      <stop offset=".36" stop-color="#4083bf"/>
      <stop offset=".83" stop-color="#48afe0"/>
      <stop offset=".93" stop-color="#4bbae8"/>
    </linearGradient>
    <linearGradient id="linear-gradient-5" x1="332.02" y1="726.39" x2="657.68" y2="726.39" gradientUnits="userSpaceOnUse">
      <stop offset=".13" stop-color="#0d1426"/>
      <stop offset=".47" stop-color="#0e1529"/>
      <stop offset=".81" stop-color="#111b35"/>
      <stop offset="1" stop-color="#152140"/>
    </linearGradient>
    <linearGradient id="linear-gradient-6" x1="500.67" y1="667.59" x2="500.67" y2="405.07" gradientUnits="userSpaceOnUse">
      <stop offset=".13" stop-color="#202d4f"/>
      <stop offset=".47" stop-color="#25385f"/>
      <stop offset=".93" stop-color="#2e4d7c"/>
    </linearGradient>
  </defs>
  <polygon class="cls-6" points="475.79 272.11 475.79 654.71 332.02 453.87 332.02 1117.76 0 919.65 0 0 475.79 272.11"/>
  <path class="cls-1" d="M475.79,272.11v382.6l-143.77-200.84v663.89L0,919.65v-334.53c0-108.6,2.55-256.2,163.58-315.03,149.65-54.67,310.08,1.27,312.19,2.01,.01,.01,.02,.01,.02,.01Z"/>
  <path class="cls-5" d="M810.57,445.55v703.4l-478.55-274.38s86.45,18.02,189.86,16.41c103.42-1.6,137.35-20.63,135.75-55.94-.79-17.35-15.66-29.54-30.5-37.43V327.37l183.44,118.18Z"/>
  <polygon class="cls-7" points="810.57 225.44 810.57 445.55 627.13 327.37 525.55 327.37 525.55 405.07 475.79 429.59 475.79 24.46 810.57 225.44"/>
  <polygon class="cls-2" points="627.13 327.37 627.13 843.29 525.55 843.29 332.02 561.7 288.69 498.65 288.69 843.29 182.75 843.29 182.75 327.37 288.69 327.37 475.79 596.12 525.55 667.59 525.55 327.37 627.13 327.37"/>
  <path class="cls-4" d="M521.88,890.98c-103.41,1.61-189.86-16.41-189.86-16.41v-312.87l193.53,281.59h101.58v-45.68c14.84,7.89,29.71,20.08,30.5,37.43,1.6,35.31-32.33,54.34-135.75,55.94Z"/>
  <polygon class="cls-3" points="525.55 405.07 525.55 667.59 475.79 596.12 475.79 429.59 525.55 405.07"/>
</svg>