<?xml version="1.0" encoding="UTF-8" standalone="no"?>
<svg
   id="Layer_1"
   data-name="Layer 1"
   viewBox="0 0 810.57001 1148.95"
   version="1.1"
   sodipodi:docname="logo.svg"
   width="243.17101"
   height="344.685"
   inkscape:version="1.4.3 (0d15f75042, 2025-12-25)"
   xmlns:inkscape="http://www.inkscape.org/namespaces/inkscape"
   xmlns:sodipodi="http://sodipodi.sourceforge.net/DTD/sodipodi-0.dtd"
   xmlns="http://www.w3.org/2000/svg"
   xmlns:svg="http://www.w3.org/2000/svg">
  <sodipodi:namedview
     id="namedview24"
     pagecolor="#505050"
     bordercolor="#ffffff"
     borderopacity="1"
     inkscape:showpageshadow="0"
     inkscape:pageopacity="0"
     inkscape:pagecheckerboard="1"
     inkscape:deskcolor="#505050"
     inkscape:zoom="1.0305062"
     inkscape:cx="405.62591"
     inkscape:cy="574.47498"
     inkscape:window-width="2560"
     inkscape:window-height="1404"
     inkscape:window-x="0"
     inkscape:window-y="0"
     inkscape:window-maximized="1"
     inkscape:current-layer="Layer_1" />
  <defs
     id="defs21">
    <style
       id="style1">
      .cls-1 {
        fill: url(#linear-gradient-2);
      }

      .cls-2 {
        fill: #fff;
      }

      .cls-3 {
        fill: url(#linear-gradient-6);
      }

      .cls-4 {
        fill: url(#linear-gradient-5);
      }

      .cls-5 {
        fill: url(#linear-gradient-3);
      }

      .cls-6 {
        fill: url(#linear-gradient);
      }

      .cls-7 {
        fill: url(#linear-gradient-4);
      }
    </style>
    <linearGradient
       id="linear-gradient"
       x1="237.89"
       y1="1123.26"
       x2="237.89"
       y2="5.5"
       gradientUnits="userSpaceOnUse">
      <stop
         offset=".71"
         stop-color="#e94e38"
         id="stop1" />
      <stop
         offset=".78"
         stop-color="#ee5e38"
         id="stop2" />
      <stop
         offset=".89"
         stop-color="#f77c39"
         id="stop3" />
    </linearGradient>
    <linearGradient
       id="linear-gradient-2"
       x1="17.200001"
       y1="934.60999"
       x2="542.60999"
       y2="330.20001"
       gradientUnits="userSpaceOnUse">
      <stop
         offset=".13"
         stop-color="#f66f37"
         id="stop4" />
      <stop
         offset=".29"
         stop-color="#e56332"
         id="stop5" />
      <stop
         offset=".6"
         stop-color="#b94426"
         id="stop6" />
      <stop
         offset=".89"
         stop-color="#8d251a"
         id="stop7" />
    </linearGradient>
    <linearGradient
       id="linear-gradient-3"
       x1="571.29999"
       y1="1148.95"
       x2="571.29999"
       y2="327.37"
       gradientUnits="userSpaceOnUse">
      <stop
         offset="0"
         stop-color="#121936"
         id="stop8" />
      <stop
         offset=".48"
         stop-color="#162343"
         id="stop9" />
      <stop
         offset=".94"
         stop-color="#2d4d7c"
         id="stop10" />
    </linearGradient>
    <linearGradient
       id="linear-gradient-4"
       x1="643.17999"
       y1="445.54999"
       x2="643.17999"
       y2="24.459999"
       gradientUnits="userSpaceOnUse">
      <stop
         offset=".13"
         stop-color="#3d73b3"
         id="stop11" />
      <stop
         offset=".36"
         stop-color="#4083bf"
         id="stop12" />
      <stop
         offset=".83"
         stop-color="#48afe0"
         id="stop13" />
      <stop
         offset=".93"
         stop-color="#4bbae8"
         id="stop14" />
    </linearGradient>
    <linearGradient
       id="linear-gradient-5"
       x1="332.01999"
       y1="726.39001"
       x2="657.67999"
       y2="726.39001"
       gradientUnits="userSpaceOnUse">
      <stop
         offset=".13"
         stop-color="#0d1426"
         id="stop15" />
      <stop
         offset=".47"
         stop-color="#0e1529"
         id="stop16" />
      <stop
         offset=".81"
         stop-color="#111b35"
         id="stop17" />
      <stop
         offset="1"
         stop-color="#152140"
         id="stop18" />
    </linearGradient>
    <linearGradient
       id="linear-gradient-6"
       x1="500.67001"
       y1="667.59003"
       x2="500.67001"
       y2="405.07001"
       gradientUnits="userSpaceOnUse">
      <stop
         offset=".13"
         stop-color="#202d4f"
         id="stop19" />
      <stop
         offset=".47"
         stop-color="#25385f"
         id="stop20" />
      <stop
         offset=".93"
         stop-color="#2e4d7c"
         id="stop21" />
    </linearGradient>
  </defs>
  <polygon
     class="cls-6"
     points="332.02,453.87 332.02,1117.76 0,919.65 0,0 475.79,272.11 475.79,654.71 "
     id="polygon21"
     style="fill:url(#linear-gradient)" />
  <path
     class="cls-1"
     d="m 475.79,272.11 v 382.6 L 332.02,453.87 v 663.89 L 0,919.65 V 585.12 c 0,-108.6 2.55,-256.2 163.58,-315.03 149.65,-54.67 310.08,1.27 312.19,2.01 0.01,0.01 0.02,0.01 0.02,0.01 z"
     id="path21"
     style="fill:url(#linear-gradient-2)" />
  <path
     class="cls-5"
     d="m 810.57,445.55 v 703.4 L 332.02,874.57 c 0,0 86.45,18.02 189.86,16.41 103.42,-1.6 137.35,-20.63 135.75,-55.94 -0.79,-17.35 -15.66,-29.54 -30.5,-37.43 V 327.37 Z"
     id="path22"
     style="fill:url(#linear-gradient-3)" />
  <polygon
     class="cls-7"
     points="475.79,24.46 810.57,225.44 810.57,445.55 627.13,327.37 525.55,327.37 525.55,405.07 475.79,429.59 "
     id="polygon22"
     style="fill:url(#linear-gradient-4)" />
  <polygon
     class="cls-2"
     points="288.69,327.37 475.79,596.12 525.55,667.59 525.55,327.37 627.13,327.37 627.13,843.29 525.55,843.29 332.02,561.7 288.69,498.65 288.69,843.29 182.75,843.29 182.75,327.37 "
     id="polygon23" />
  <path
     class="cls-4"
     d="M 521.88,890.98 C 418.47,892.59 332.02,874.57 332.02,874.57 V 561.7 l 193.53,281.59 h 101.58 v -45.68 c 14.84,7.89 29.71,20.08 30.5,37.43 1.6,35.31 -32.33,54.34 -135.75,55.94 z"
     id="path23"
     style="fill:url(#linear-gradient-5)" />
  <polygon
     class="cls-3"
     points="525.55,405.07 525.55,667.59 475.79,596.12 475.79,429.59 "
     id="polygon24"
     style="fill:url(#linear-gradient-6)" />
</svg>
